<svg width="64" height="64" viewBox="0 0 64 64" xmlns="http://www.w3.org/2000/svg">
  <defs>
    <linearGradient id="bg" x1="0" y1="0" x2="1" y2="1">
      <stop offset="0%" stop-color="#5469e8"/>
      <stop offset="100%" stop-color="#2d42b3"/>
    </linearGradient>
  </defs>
  <rect width="64" height="64" rx="16" fill="url(#bg)"/>
  <path d="M32 12C22.059 12 14 20.059 14 30v16c0 1.2 1 1.8 2 1.2 1.5-1 3 0 4.5 1 1.5 1 3 0 4.5-1 1.5-1 3 0 4.5 1 1.5 1 3 0 4.5-1 1.5-1 3 0 4.5 1 1.5 1 3 0 4.5-1 1.5-1 3 0 4.5 1C49 49.8 50 49.2 50 48V30c0-9.941-8.059-18-18-18z" fill="white"/>
  <circle cx="25" cy="31" r="2.8" fill="#3d52d5"/>
  <circle cx="39" cy="31" r="2.8" fill="#3d52d5"/>
</svg>
